<svg width="35.2mm" height="11.5mm" version="1.1" viewBox="0 0 35.2 11.5" xmlns="http://www.w3.org/2000/svg">
 <style/>
 <defs>
  <filter id="filter5009-9" color-interpolation-filters="sRGB">
   <feColorMatrix values="1.73 -0.5 -0.5 0 0 -0.5 1.73 -0.5 0 0 -0.5 -0.5 1.73 0 0 0 0 0 1 0 "/>
  </filter>
 </defs>
 <g transform="translate(-9.21 -7.69)">
  <g transform="matrix(.0487 0 0 .0487 104 64.3)">
   <text transform="matrix(.857 0 0 .857 -354 -2371)" x="-1367.395" y="1682.595" fill="#000000" filter="url(#filter5009-9)" font-family="Sarai" letter-spacing="0px" stroke="#000000" stroke-opacity=".831" stroke-width="1px" word-spacing="0px" style="line-height:0%" xml:space="preserve"><tspan x="-1367.395" y="1682.595" font-family="'DejaVu Sans'" font-size="40px" style="line-height:1.25">cadot.info</tspan></text>
   <path transform="matrix(5.44 0 0 5.44 -2068 83)" d="m32.6-216c-2.45-0.0112-4.72 0.582-6.51 1.64-2.04 1.21-3.5 3.08-3.67 5.31-0.166 2.23 0.995 4.3 2.84 5.79 0.221 0.179 0.453 0.351 0.693 0.516-0.283 0.645-0.869 1.7-2.01 2.48-1.71 1.16 2.77 1.17 5.84-0.721 0.0177-0.0109 0.0278-0.0186 0.0449-0.0293 0.854 0.226 1.75 0.387 2.68 0.457 2.86 0.213 5.53-0.388 7.57-1.59s3.5-3.08 3.67-5.31c0.166-2.23-0.997-4.3-2.84-5.79-1.84-1.5-4.39-2.49-7.25-2.7-0.357-0.0266-0.712-0.0414-1.06-0.043zm-0.0039 1.95c0.304 1e-3 0.611 0.0139 0.922 0.0371 2.49 0.185 4.67 1.06 6.14 2.26 1.48 1.2 2.23 2.66 2.12 4.14-0.111 1.48-1.07 2.81-2.71 3.78s-3.93 1.51-6.41 1.33c-2.49-0.185-4.67-1.06-6.14-2.26-1.48-1.2-2.23-2.66-2.12-4.14 0.111-1.48 1.07-2.81 2.71-3.78 1.43-0.846 3.36-1.37 5.49-1.36zm13 4.81c0.116 0.625 0.16 1.27 0.111 1.92-0.204 2.74-1.89 5.06-4.31 6.59-2.42 1.53-5.6 2.31-9 2.06-0.355-0.0265-0.704-0.0695-1.05-0.117a10.5 7.47 4.26 0 0 6.43 2.12 10.5 7.47 4.26 0 0 2.78-0.0586c-0.109 1.29 8.05 4.24 5.63 1.84-2.09-2.07-1.58-2.9-1.38-3.11a10.5 7.47 4.26 0 0 4-5.34 10.5 7.47 4.26 0 0-3.21-5.91z" fill-rule="evenodd"/>
   <g transform="matrix(.525 .0392 -.0387 .519 -1105 -1256)" fill="none">
    <path d="m-1498 574 7.35-29.4 20.7-0.669-7.35 18.7z" fill="none"/>
   </g>
   <g transform="matrix(.635 -.0905 .0905 .635 -800 -1625)">
    <path transform="matrix(8.39 1.2 -1.2 8.39 -2334 2358)" d="m112-211c-0.291-0.012-0.593-5.4e-4 -0.904 0.0332l-12.9 1.84 1.35 9.49c0.135 0.95 1.01 1.61 1.96 1.47l9.49-1.35c0.95-0.135 1.61-1.01 1.47-1.96l-0.195-1.37c0.112-6e-3 0.223 2e-3 0.336-0.0137 2.21-0.315 3.76-2.38 3.44-4.59-0.498-2.26-2-3.47-4.03-3.55zm0.152 1.96c1.01 0.058 1.86 0.814 2.01 1.86 0.171 1.2-0.643 2.28-1.84 2.45-0.113 0.0162-0.225 0.0147-0.336 0.0137l-0.604-4.23c0.106-0.032 0.213-0.0639 0.326-0.0801 0.15-0.0213 0.299-0.0278 0.443-0.0195zm4.33 9.29-19.2 2.73 0.186 1.31c0.108 0.758 0.852 1.32 1.61 1.21l16.3-2.33c0.758-0.108 1.32-0.852 1.21-1.61z" color="#000000" color-rendering="auto" dominant-baseline="auto" image-rendering="auto" shape-rendering="auto" solid-color="#000000" stop-color="#000000" style="font-feature-settings:normal;font-variant-alternates:normal;font-variant-caps:normal;font-variant-east-asian:normal;font-variant-ligatures:normal;font-variant-numeric:normal;font-variant-position:normal;font-variation-settings:normal;inline-size:0;isolation:auto;mix-blend-mode:normal;shape-margin:0;shape-padding:0;text-decoration-color:#000000;text-decoration-line:none;text-decoration-style:solid;text-indent:0;text-orientation:mixed;text-transform:none;white-space:normal"/>
   </g>
   <g transform="rotate(32.2)">
    <path transform="matrix(4.6 -2.9 2.9 4.6 -1706 1172)" d="m149-229c-0.556 0.0183-1.1 0.303-1.41 0.809l-0.635 1.01c-0.105 0.167-0.171 0.347-0.213 0.529a0.478 0.478 0 0 0-0.191 0.174l-15.9 25.3a0.42 0.42 0 0 0-0.166 0.32l-0.121 3.96a0.42 0.42 0 0 0 0 2e-3l-0.0957 3.96a0.42 0.42 0 0 0 0.619 0.379l3.49-1.88a0.42 0.42 0 0 0 0.01-4e-3l3.37-1.91a0.42 0.42 0 0 0 0.203-0.273l15.9-25.3a0.478 0.478 0 0 0 0.0684-0.184c0.166-0.123 0.317-0.273 0.434-0.459l0.635-1.01c0.509-0.809 0.266-1.88-0.543-2.39l-4.46-2.8c-0.303-0.191-0.643-0.277-0.977-0.266zm-0.0996 0.551c0.113-0.0145 0.228-0.0132 0.342 6e-3 0.152 0.0254 0.303 0.0817 0.443 0.17l4.46 2.81c0.561 0.353 0.726 1.08 0.373 1.64l-0.635 1.01c-0.0631 0.1-0.148 0.173-0.232 0.246l-6.36-4c0.0297-0.108 0.0598-0.216 0.123-0.316l0.635-1.01c0.199-0.315 0.514-0.505 0.852-0.549zm-1.8 2.88 5.68 3.57-0.121 0.191-1.42-0.895-0.334 0.531 1.42 0.895-0.205 0.324-3.07-1.94-0.334 0.531 3.08 1.93-0.209 0.332-5.68-3.57zm-1.53 2.43 2.68 1.69-12.6 20.1c-0.303-0.146-0.607-0.248-0.852-0.238-0.0187 7.9e-4 -0.0369 2e-3 -0.0547 4e-3l-1.68 0.164c-2e-3 -1e-5 -4e-3 -1e-5 -6e-3 0l-1.19 0.125zm3.2 2.02 2.47 1.56-13.7 21.8-0.283-0.984c1e-5 -2e-3 1e-5 -4e-3 0-6e-3l-0.457-1.55c-0.0753-0.255-0.307-0.54-0.621-0.787zm-14.2 20.1c0.282-0.0278 0.671 0.0925 1.03 0.318 0.381 0.239 0.67 0.56 0.752 0.836l0.395 1.34c6.5e-4 1e-3 9.5e-4 3e-3 2e-3 4e-3l0.297 1.04-5.19-3.27 1.25-0.131c1e-3 -6.8e-4 3e-3 -9.6e-4 4e-3 -2e-3zm-3.33 1.01 5.37 3.38-2.69 1.52-0.799 0.43c-0.369-0.886-1.07-1.25-2-1.25l0.0215-0.891z" color="#000000" color-rendering="auto" dominant-baseline="auto" image-rendering="auto" shape-rendering="auto" solid-color="#000000" stop-color="#000000" style="font-feature-settings:normal;font-variant-alternates:normal;font-variant-caps:normal;font-variant-east-asian:normal;font-variant-ligatures:normal;font-variant-numeric:normal;font-variant-position:normal;font-variation-settings:normal;inline-size:0;isolation:auto;mix-blend-mode:normal;shape-margin:0;shape-padding:0;text-decoration-color:#000000;text-decoration-line:none;text-decoration-style:solid;text-indent:0;text-orientation:mixed;text-transform:none;white-space:normal"/>
   </g>
   <path d="m-1941-966h583" fill="#f00" fill-rule="evenodd" stroke="#000" stroke-linecap="round" stroke-width="9.03"/>
   <path transform="matrix(5.44 0 0 5.44 -2068 83)" d="m79.7-219c-3.89 0-7.03 3.14-7.03 7.03 0 3.89 3.14 7.03 7.03 7.03 3.88-2e-5 7.02-3.13 7.03-7.01-0.872-0.229-4.79 2.76-4.79 2.76l-3.25-1.9v-3.52s4.77-2.06 5.05-3.11c-1.14-0.8-2.53-1.27-4.03-1.27zm-7.67 10.2c-0.0714 0.0493-0.14 0.102-0.203 0.166l-10.8 10.8c-0.563 0.564-0.562 1.47 2e-3 2.03l2.38 2.37c0.564 0.563 1.47 0.564 2.03 0l10.8-10.8c0.0527-0.0528 0.0959-0.112 0.139-0.17-1.95-0.855-3.51-2.43-4.34-4.4zm-6.47 9.99a1.05 1.05 0 0 1 0.0117 0 1.05 1.05 0 0 1 1.05 1.05 1.05 1.05 0 0 1-1.05 1.05 1.05 1.05 0 0 1-1.05-1.05 1.05 1.05 0 0 1 1.04-1.05z"/>
  </g>
 </g>
</svg>
